<?xml version="1.0" encoding="UTF-8"?>
<svg width="24px" height="24px" viewBox="0 0 24 24" version="1.1" xmlns="http://www.w3.org/2000/svg" xmlns:xlink="http://www.w3.org/1999/xlink">
    <!-- Generator: Sketch 52.6 (67491) - http://www.bohemiancoding.com/sketch -->
    <title>ico-instgram</title>
    <desc>Created with Sketch.</desc>
    <g id="Main-pages-1440-320" stroke="none" stroke-width="1" fill="none" fill-rule="evenodd">
        <g id="Buttons" transform="translate(-846.000000, -165.000000)" fill="#FFFFFF">
            <g id="Group" transform="translate(826.000000, 145.000000)">
                <g id="ico-instgram" transform="translate(20.000000, 20.000000)">
                    <g id="Combined-Shape">
                        <path d="M11.8735768,2.64677169e-13 L11.8698666,2.68192161e-13 C15.0952529,2.68192161e-13 15.4984262,0.0140986976 16.7648355,0.0717302158 C18.0287714,0.12960908 18.8920074,0.329711647 19.6488849,0.623310841 C20.4304969,0.926309166 21.0909096,1.3319559 21.7513222,1.99236858 C22.4117349,2.65228657 22.8173816,3.31467801 23.1216167,4.09554798 C23.4134845,4.85044666 23.6138344,5.71318801 23.6731973,6.97712389 C23.7300868,8.24353321 23.7449275,8.64819057 23.7449275,11.8725874 C23.7449275,15.0969843 23.7300868,15.5006523 23.6731973,16.7670616 C23.6138344,18.0305028 23.4134845,18.8934915 23.1216167,19.6486375 C22.8173816,20.4292601 22.4117349,21.0916516 21.7513222,21.7515696 C21.0916516,22.4119823 20.4302495,22.8186184 19.6496269,23.121864 C18.8942335,23.4154632 18.0305028,23.6155658 16.7665669,23.6734447 C15.5001576,23.7310762 15.096737,23.7451749 11.8720927,23.7451749 C8.64794322,23.7451749 8.24353321,23.7310762 6.97712389,23.6734447 C5.71343536,23.6155658 4.85044666,23.4154632 4.09505328,23.121864 C3.31467801,22.8186184 2.65228657,22.4119823 1.99261593,21.7515696 C1.33245059,21.0916516 0.926803857,20.4292601 0.623310841,19.6483902 C0.329958993,18.8934915 0.129856425,18.0307501 0.0717302158,16.7668143 C0.0143460432,15.5004049 -4.79616347e-13,15.0969843 -4.79616347e-13,11.8725874 C-4.79616347e-13,8.64819057 0.0148407343,8.24328587 0.0714828702,6.97687654 C0.128372352,5.71343536 0.328722265,4.85044666 0.623063495,4.09530063 C0.927298548,3.31467801 1.33294529,2.65228657 1.99335796,1.99236858 C2.65327595,1.33220325 3.31566739,0.926556512 4.09653736,0.623310841 C4.85143604,0.329711647 5.7141774,0.12960908 6.97811327,0.0717302158 C8.2445226,0.0140986976 8.64917995,2.64677169e-13 11.8735768,2.64677169e-13 Z M10.8085068,2.1395392 L10.8085068,2.13657105 C8.59575331,2.1390445 8.17130831,2.15388524 7.07606211,2.20335435 C5.91848484,2.25653365 5.28997974,2.4494632 4.87147103,2.61271127 C4.31741695,2.82839661 3.92166404,3.08563601 3.50612348,3.50117657 C3.09058292,3.91671713 2.83284883,4.31247004 2.61765819,4.86652412 C2.45515214,5.28503283 2.26172791,5.91329058 2.20879596,7.07086786 C2.15190647,8.32243645 2.14052858,8.69642295 2.14052858,11.8668985 C2.14052858,15.037374 2.15190647,15.4133393 2.20879596,16.6649079 C2.26148056,17.8224852 2.45515214,18.4507429 2.61765819,18.8687569 C2.83334352,19.4230584 3.09058292,19.8178219 3.50612348,20.2333625 C3.92166404,20.648903 4.31741695,20.9061424 4.87147103,21.1213331 C5.29022709,21.2838391 5.91848484,21.4772633 7.07606211,21.53069 C8.32763071,21.5875795 8.70334863,21.5999467 11.8735768,21.5999467 C15.0435577,21.5999467 15.4195229,21.5875795 16.6710915,21.53069 C17.8286688,21.477758 18.4574213,21.2848285 18.8754353,21.1215804 C19.4297367,20.9063898 19.8242529,20.6491504 20.2397934,20.2336098 C20.655334,19.8183166 20.9130681,19.4238004 21.1282587,18.8697463 C21.2907648,18.4517323 21.484189,17.8234746 21.537121,16.6658973 C21.5940104,15.4143287 21.6063777,15.0383634 21.6063777,11.8698666 C21.6063777,8.70136987 21.5940104,8.3254046 21.537121,7.073836 C21.4844364,5.91625873 21.2907648,5.28800098 21.1282587,4.86998696 C20.9125734,4.31593288 20.655334,3.92017997 20.2397934,3.50463941 C19.8245002,3.08909884 19.4294893,2.83185945 18.8754353,2.6166688 C18.4569266,2.45416276 17.8286688,2.26073853 16.6710915,2.20780657 C15.4192756,2.15091709 15.0435577,2.1395392 11.8735768,2.1395392 C11.4773292,2.1395392 11.1246144,2.1390445 10.8085068,2.1395392 Z M18.2110651,4.1108834 L18.2110651,4.11038871 C18.997624,4.11038871 19.6357756,4.74854029 19.6357756,5.5350992 C19.6357756,6.32165812 18.997624,6.9598097 18.2110651,6.9598097 C17.4245061,6.9598097 16.7863546,6.32165812 16.7863546,5.5350992 C16.7863546,4.74829294 17.4245061,4.1108834 18.2110651,4.1108834 Z M11.8735768,5.7755191 L11.8733295,5.7755191 C15.2404447,5.7755191 17.9696558,8.50547217 17.9696558,11.8725874 C17.9696558,15.2397027 15.2406921,17.9684191 11.8735768,17.9684191 C8.50646156,17.9684191 5.77650848,15.2397027 5.77650848,11.8725874 C5.77650848,8.50547217 8.50646156,5.7755191 11.8735768,5.7755191 Z M11.8735768,7.91505829 C9.68778401,7.91505829 7.91604768,9.68679462 7.91604768,11.8725874 C7.91604768,14.0581329 9.68778401,15.8301166 11.8735768,15.8301166 C14.0591223,15.8301166 15.831106,14.0581329 15.831106,11.8725874 C15.831106,9.68679462 14.0591223,7.91505829 11.8735768,7.91505829 Z" fill-rule="nonzero"></path>
                    </g>
                </g>
            </g>
        </g>
    </g>
</svg>