<?xml version="1.0" encoding="UTF-8"?>
<svg width="24px" height="24px" viewBox="0 0 24 24" version="1.1" xmlns="http://www.w3.org/2000/svg" xmlns:xlink="http://www.w3.org/1999/xlink">
    <!-- Generator: Sketch 52.6 (67491) - http://www.bohemiancoding.com/sketch -->
    <title>ico-facebook_messenger</title>
    <desc>Created with Sketch.</desc>
    <g id="Main-pages-1440-320" stroke="none" stroke-width="1" fill="none" fill-rule="evenodd">
        <g id="Buttons" transform="translate(-617.000000, -262.000000)" fill="#FFFFFF">
            <g id="Group" transform="translate(587.000000, 242.000000)">
                <g id="Stacked-Group" transform="translate(30.000000, 20.000000)">
                    <g id="ico-facebook_messenger">
                        <g id="Combined-Shape">
                            <path d="M12,0 C18.76056,0 24,4.95216025 24,11.6403874 C24,18.3286146 18.76056,23.2807749 12,23.2807749 C10.78554,23.2807749 9.61932,23.1214327 8.52558,22.8196255 C8.31309223,22.7616552 8.0871428,22.7787077 7.88574,22.8679147 L5.50506,23.9182036 C4.88208,24.1910614 4.17948,23.7491916 4.15776,23.0682786 L4.09254,20.9338862 C4.08288,20.6706984 3.96462,20.4268502 3.76902,20.2505708 C1.43418,18.1620051 0,15.1390083 0,11.6404475 C0,4.95216025 5.23944,0 12,0 Z M4.92875798,15.0571972 C4.5903377,15.5956619 5.24791663,16.204474 5.74943462,15.8188307 L9.51463606,12.9301258 C9.76925749,12.735371 10.1204782,12.7343872 10.3761617,12.9277125 L13.1622402,15.0402439 C13.9973481,15.6733095 15.1924041,15.4501407 15.7491427,14.5575864 L19.2503465,8.94277177 C19.5887668,8.40436737 18.9311878,7.79555531 18.4296699,8.18113829 L14.6668538,11.0674299 C14.4122323,11.2621846 14.0610116,11.2631685 13.8053282,11.0698432 L11.0192496,8.95731183 C10.1841417,8.32424623 8.98908576,8.54741497 8.43234712,9.43996929 L4.92875798,15.0571972 Z" fill-rule="nonzero"></path>
                        </g>
                    </g>
                </g>
            </g>
        </g>
    </g>
</svg>