<?xml version="1.0" encoding="UTF-8"?>
<svg width="165px" height="30px" viewBox="0 0 165 30" version="1.1" xmlns="http://www.w3.org/2000/svg" xmlns:xlink="http://www.w3.org/1999/xlink">
    <!-- Generator: Sketch 52.6 (67491) - http://www.bohemiancoding.com/sketch -->
    <title>Shape Copy</title>
    <desc>Created with Sketch.</desc>
    <g id="Page-1" stroke="none" stroke-width="1" fill="none" fill-rule="evenodd">
        <path d="M89.951,0.88325 C87.8677147,0.883272091 86.17889,2.5721147 86.17889,4.6554 L86.17889,19.18029 C86.221568,21.1791637 85.7241075,23.1525194 84.73896,24.89229 C83.7867404,26.526467 82.3731303,27.8430494 80.67548,28.67686 C78.7881326,29.5898391 76.7115254,30.0432394 74.6154,30 C72.5143946,30.0414967 70.4322297,29.5968062 68.53148,28.70065 C66.8070199,27.8702646 65.3624621,26.5545497 64.37505,24.91494 C63.3399179,23.1505043 62.8173125,21.1323734 62.86595,19.08729 L62.86595,3.10025 C62.86595,1.87583471 61.8733653,0.88325 60.64895,0.88325 L59.56837,0.88325 C59.4759433,0.88325 59.42964,0.79028 59.42946,0.60434 C59.42946,0.418386667 59.4757633,0.325416667 59.56837,0.32543 L71.31777,0.32543 C71.4107233,0.32543 71.4572167,0.4184 71.45725,0.60434 C71.4572833,0.79028 71.41079,0.88325 71.31777,0.88325 L70.22128,0.88325 C69.6376617,0.883223478 69.0779379,1.11504634 68.6652481,1.52771738 C68.2525583,1.94038843 68.02071,2.50010174 68.02071,3.08372 L68.02071,17.46145 C68.02071,21.14623 68.74823,23.8707233 70.20327,25.63493 C71.7345135,27.435018 74.0200137,28.4146639 76.37957,28.28231 C78.6360952,28.4071389 80.836719,27.5520914 82.417,25.93648 C83.8716667,24.37412 84.5991867,22.13755 84.59956,19.22677 L84.59956,4.64374 C84.59956,3.64632214 84.2033133,2.68976103 83.4979996,1.98451291 C82.7926858,1.2792648 81.8360879,0.883107169 80.83867,0.8832 L80.28093,0.8832 C80.21855,0.8832 80.18793,0.7902 80.18793,0.60429 C80.18793,0.41838 80.21855,0.32538 80.28093,0.32538 L90.03262,0.32538 C90.09496,0.32538 90.12562,0.41838 90.12562,0.60429 C90.12562,0.7902 90.095,0.8832 90.03262,0.8832 L89.951,0.88325 Z M55.88181,28.79249 C54.712351,28.7949719 53.746045,27.8806504 53.68392,26.71284 C53.43472,21.99847 52.82381,10.4411 52.50492,4.40961 C52.4570506,3.49071125 52.7890255,2.59253822 53.4230151,1.92566225 C54.0570047,1.25878629 54.9372563,0.881852219 55.8574,0.88323 L56.55023,0.88323 C56.64323,0.88323 56.6897233,0.79026 56.68971,0.60432 C56.6896967,0.41838 56.6432033,0.325416667 56.55023,0.32543 L49.21983,0.32528 C48.7474178,0.324981332 48.3205919,0.607138041 48.13578,1.0419 C46.49742,4.8969 39.43046,21.50848 39.43046,21.50848 C39.43046,21.50848 31.48565,6.599 28.45989,0.92079 C28.2635761,0.552679579 27.8796422,0.323465547 27.46246,0.32531 L19.9091,0.32543 C19.8161,0.32543 19.77024,0.41843 19.77024,0.60434 C19.77024,0.79025 19.81614,0.88325 19.9091,0.88325 C20.7436114,0.872202529 21.5560935,1.151106 22.20788,1.67236 C22.919136,2.28922578 23.5099789,3.03249979 23.95051,3.86457 L24.07189,4.09533 C24.04748,5.21279 23.97502,8.53282 23.89052,12.4047 C23.79637,16.71914 23.68727,21.7176 23.61319,25.11349 C23.5682976,27.1593589 21.8961408,28.7940107 19.84978,28.79249 L19.53778,28.79249 C19.47544,28.79249 19.44478,28.88549 19.44478,29.0714 C19.44478,29.25731 19.4754,29.35031 19.53778,29.35031 L29.2895,29.35031 C29.35184,29.35031 29.3825,29.25731 29.3825,29.0714 C29.3825,28.88549 29.35188,28.79249 29.2895,28.79249 L28.91313,28.79249 C27.912778,28.7951976 26.9537534,28.3936808 26.2537225,27.6790703 C25.5536915,26.9644599 25.1720256,25.9973637 25.19535,24.99728 C25.24835,22.57095 25.31846,19.35764 25.38814,16.16388 C25.46261,12.75218 25.53655,9.36274 25.58862,6.9788 C25.58862,6.9788 26.05162,7.85905 26.79262,9.26774 C29.76,14.909 37.18517,29.02494 37.18517,29.02494 C37.2727174,29.141981 37.4103236,29.210894 37.556485,29.210894 C37.7026464,29.210894 37.8402526,29.141981 37.9278,29.02494 L38.1158,28.5842 C39.37666,25.628 46.57914,8.74175 47.41544,6.781 L47.49469,6.59528 C47.49469,6.59528 48.223,20.783 48.51518,26.47285 C48.5461946,27.0769716 48.327828,27.6673342 47.9111526,28.1058618 C47.4944772,28.5443893 46.9160372,28.7926212 46.31112,28.7925 L45.17269,28.7925 C45.0797367,28.7925 45.03326,28.88547 45.03326,29.07141 C45.03326,29.25735 45.0797367,29.35032 45.17269,29.35032 L57.01452,29.35032 C57.0763333,29.35032 57.1073333,29.25735 57.10752,29.07141 C57.10752,28.8854567 57.07652,28.7924867 57.01452,28.7925 L55.88181,28.79249 Z M151.51298,28.79249 C149.807273,28.7944116 148.216902,27.9314639 147.28875,26.50039 C145.30159,23.43585 141.81975,18.06645 138.54437,13.0156 L138.54313,13.01374 L144.65123,3.55156 C145.725074,1.88806654 147.569752,0.883228529 149.54974,0.88323 L150.07758,0.88323 C150.20115,0.88323 150.26349,0.79032 150.26349,0.60437 C150.26349,0.41842 150.20115,0.32546 150.07758,0.32546 L140.57642,0.32546 C140.45285,0.32546 140.39051,0.41846 140.39051,0.60437 C140.39051,0.79028 140.45285,0.88323 140.57642,0.88323 L141.38535,0.88323 C142.005098,0.881963475 142.575918,1.21972232 142.873124,1.76355883 C143.17033,2.30739535 143.14633,2.97022246 142.81057,3.49114 C141.48563,5.5435 139.61097,8.44748 137.60116,11.56105 C135.57393,8.43489 133.69338,5.53519 132.38581,3.51913 C132.045346,2.99384875 132.019639,2.32436874 132.31882,1.77452614 C132.618001,1.22468353 133.194092,0.882654629 133.82006,0.88323 C133.913013,0.88323 133.959507,0.790276667 133.95954,0.60437 C133.959573,0.418463333 133.91308,0.325493333 133.82006,0.32546 L121.78734,0.32546 C121.694387,0.32546 121.647893,0.41843 121.64786,0.60437 C121.647827,0.79031 121.69432,0.883263333 121.78734,0.88323 C123.494855,0.881274441 125.086931,1.745097 126.01611,3.17766 C127.96284,6.17952 131.32717,11.36766 134.53511,16.31448 L128.20223,26.12482 C127.128644,27.7879254 125.284402,28.7925306 123.30488,28.79253 L122.77629,28.79253 C122.65272,28.79253 122.59038,28.88553 122.59038,29.07144 C122.59038,29.25735 122.65272,29.35035 122.77629,29.35035 L132.27745,29.35035 C132.40102,29.35035 132.46336,29.25735 132.46336,29.07144 C132.46336,28.88553 132.40102,28.79253 132.27745,28.79253 L131.46597,28.79253 C130.846663,28.7934885 130.276402,28.45574 129.97959,27.9121917 C129.682778,27.3686434 129.706929,26.7063077 130.04254,26.18582 C131.41701,24.05671 133.38171,21.01318 135.47713,17.7672 C137.58457,21.0172 139.55372,24.05382 140.91775,26.15734 C141.258065,26.6830852 141.283231,27.3529516 140.983324,27.9027494 C140.683416,28.4525472 140.106574,28.7940263 139.4803,28.79251 C139.387347,28.79251 139.340853,28.88548 139.34082,29.07142 C139.340787,29.25736 139.38728,29.35033 139.4803,29.35033 L151.513,29.35033 C151.605953,29.35033 151.652447,29.25736 151.65248,29.07142 C151.652513,28.88548 151.60602,28.7925133 151.513,28.79252 L151.51298,28.79249 Z M121.73241,28.79496 C120.0245,29.00728 118.47985,27.68562 117.7002,26.15129 L104.48238,0.13948 C104.450667,0.0464933333 104.311207,0 104.064,0 C103.84742,0 103.708,0.04653 103.64675,0.13948 C103.64675,0.13948 93.02311,23.30274 92.14788,25.11607 C91.2557288,27.3217291 89.1227354,28.7727576 86.74356,28.79251 L86.29336,28.79251 C86.16979,28.79251 86.10607,28.88551 86.10329,29.07142 C86.10051,29.25733 86.16152,29.35033 86.28509,29.35033 L95.85088,29.35033 C95.97445,29.35033 96.03817,29.25733 96.04088,29.07142 C96.04359,28.88551 95.9827,28.79251 95.85913,28.79251 C93.81594,28.79265 92.93531,27.13342 93.89528,25.09028 C94.94171,22.86314 98.33805,15.6132 98.33805,15.6132 L106.46046,15.6122 L106.46056,15.6122 C106.53651,15.76238 107.38165,17.4283 108.33895,19.31506 L111.88709,26.30811 C112.15613,26.8383577 112.130492,27.4702795 111.819383,27.9769902 C111.508273,28.4837009 110.956336,28.7924863 110.36174,28.79248 L109.869,28.79248 C109.74543,28.79248 109.68309,28.88548 109.68309,29.07139 C109.68309,29.2573 109.74543,29.3503 109.869,29.3503 L121.77609,29.3503 C121.89966,29.3503 121.962,29.2573 121.962,29.07139 C121.962,28.86784 121.88727,28.77574 121.73241,28.795 L121.73241,28.79496 Z M99.05709,14.03287 C100.22509,11.46568 101.33391,9.02831 102.18645,7.15413 C102.75091,8.27113 104.61856,11.96704 105.66245,14.03287 L99.05709,14.03287 Z M162.678,12.678 C163.617161,12.678 164.463847,13.2437371 164.823248,14.1114091 C165.18265,14.979081 164.983989,15.9778146 164.319902,16.6419019 C163.655815,17.3059893 162.657081,17.5046498 161.789409,17.1452483 C160.921737,16.7858468 160.356,15.9391613 160.356,15 C160.356,13.7175948 161.395595,12.678 162.678,12.678 Z M2.322,12.678 C3.60440519,12.678 4.644,13.7175948 4.644,15 C4.644,16.2824052 3.60440519,17.322 2.322,17.322 C1.03959481,17.322 -9.81955273e-16,16.2824052 0,15 C2.43505857e-15,13.7175948 1.03959481,12.678 2.322,12.678 Z" id="Shape-Copy" fill="#FFFFFF" fill-rule="nonzero"></path>
    </g>
</svg>