<?xml version="1.0" encoding="UTF-8"?>
<svg width="448px" height="103px" viewBox="0 0 448 103" version="1.1" xmlns="http://www.w3.org/2000/svg" xmlns:xlink="http://www.w3.org/1999/xlink">
    <!-- Generator: Sketch 52.6 (67491) - http://www.bohemiancoding.com/sketch -->
    <title>Shape Copy 3</title>
    <desc>Created with Sketch.</desc>
    <g id="Page-1" stroke="none" stroke-width="1" fill="none" fill-rule="evenodd" fill-opacity="0">
        <path d="M238.851306,3.979626 C231.823385,3.97970052 226.126169,9.67697688 226.126169,16.7048977 L226.126169,65.7043201 C226.270143,72.4474801 224.59197,79.1045554 221.268595,84.9736365 C218.056301,90.4864994 213.287516,94.9279637 207.560527,97.7408068 C201.193599,100.820723 194.188206,102.35026 187.11697,102.204393 C180.029271,102.344381 173.00513,100.844227 166.592989,97.8210618 C160.775558,95.0197734 155.902371,90.5812359 152.571356,85.0500458 C149.079359,79.0977576 147.316361,72.2896341 147.480438,65.3905865 L147.480438,11.4586306 C147.480438,7.32809042 144.131974,3.979626 140.001433,3.979626 L136.356119,3.979626 C136.044319,3.979626 135.888116,3.66599358 135.887509,3.03872876 C135.887509,2.41141895 136.043712,2.09778654 136.356119,2.09783152 L175.992482,2.09783152 C176.306058,2.09783152 176.462902,2.41146393 176.463015,3.03872876 C176.463127,3.66599358 176.306283,3.979626 175.992482,3.979626 L172.293495,3.979626 C170.324671,3.97953652 168.436454,4.76158624 167.044253,6.15372368 C165.652052,7.54586111 164.869917,9.43404263 164.869917,11.402867 L164.869917,59.9058481 C164.869917,72.3363789 167.324191,81.527402 172.232739,87.4789175 C177.398358,93.5514778 185.108446,96.8562937 193.068362,96.4098003 C200.680704,96.830908 208.104463,93.9464227 213.43551,88.4961903 C218.342798,83.2256005 220.797072,75.6805768 220.798332,65.8611194 L220.798332,16.6655629 C220.798332,13.3007939 219.461601,10.0738544 217.08224,7.69471415 C214.702878,5.31557391 211.475814,3.97914416 208.111045,3.97945732 L206.229521,3.97945732 C206.019083,3.97945732 205.915787,3.66572371 205.915787,3.03856008 C205.915787,2.41139646 206.019083,2.09766284 206.229521,2.09766284 L239.126649,2.09766284 C239.336952,2.09766284 239.440383,2.41139646 239.440383,3.03856008 C239.440383,3.66572371 239.337087,3.97945732 239.126649,3.97945732 L238.851306,3.979626 Z M123.919583,98.1308822 C119.974437,98.139255 116.714623,95.0548098 116.505046,91.115225 C115.664375,75.2113933 113.603482,36.2228395 112.527713,15.8757301 C112.366227,12.7758437 113.486137,9.7458752 115.624888,7.49618264 C117.763639,5.24649007 120.73315,3.97491061 123.837237,3.97955853 L126.174485,3.97955853 C126.488218,3.97955853 126.645062,3.66592611 126.645017,3.03866129 C126.644973,2.41139646 126.488128,2.09778654 126.174485,2.09783152 L101.445528,2.0973255 C99.8518555,2.09631795 98.4119669,3.04816789 97.7885078,4.51482856 C92.2615335,17.519593 68.421287,73.5584219 68.421287,73.5584219 C68.421287,73.5584219 41.6196312,23.2615929 31.4122911,4.10626643 C30.7500302,2.86445337 29.454837,2.09120447 28.0474812,2.0974267 L2.56637412,2.09783152 C2.2526405,2.09783152 2.09793272,2.41156514 2.09793272,3.03872876 C2.09793272,3.66589238 2.25277544,3.979626 2.56637412,3.979626 C5.38158158,3.94235758 8.12247332,4.88323278 10.3212619,6.64167261 C12.7206697,8.72265682 14.7138661,11.2300766 16.199989,14.0370487 L16.6094619,14.8155129 C16.5271153,18.5852416 16.2826729,29.7852956 15.9976139,42.8470044 C15.6800008,57.4016804 15.3119541,74.263884 15.0620468,85.7198502 C14.9106032,92.6215476 9.26961617,98.1360122 2.3662593,98.1308822 L1.31373362,98.1308822 C1.10343089,98.1308822 1,98.4446158 1,99.0717795 C1,99.6989431 1.10329595,100.012677 1.31373362,100.012677 L34.2109637,100.012677 C34.4212664,100.012677 34.5246973,99.6989431 34.5246973,99.0717795 C34.5246973,98.4446158 34.4214013,98.1308822 34.2109637,98.1308822 L32.9412871,98.1308822 C29.5666199,98.1400163 26.3313699,96.7855074 23.9698296,94.3747835 C21.6082894,91.9640596 20.3207471,88.7015802 20.3994315,85.3278181 C20.5782259,77.142643 20.8147406,66.3026067 21.0498047,55.528522 C21.3010277,44.0192211 21.5504628,32.5850139 21.7261199,24.5428405 C21.7261199,24.5428405 23.288041,27.5123461 25.7877895,32.2645333 C35.7981859,51.2952097 60.8468466,98.9150476 60.8468466,98.9150476 C61.142186,99.309883 61.6063978,99.5423595 62.0994702,99.5423595 C62.5925426,99.5423595 63.0567544,99.309883 63.3520939,98.9150476 L63.9863081,97.4282201 C68.2397937,87.4555393 92.5372142,30.4901167 95.3584554,23.8755662 L95.6258036,23.2490436 C95.6258036,23.2490436 98.0827427,71.1110298 99.068406,90.3056236 C99.1730331,92.3436157 98.4363779,94.3351919 97.0307319,95.8145558 C95.6250858,97.2939197 93.6737301,98.1313248 91.6330542,98.130916 L87.7925836,98.130916 C87.4790074,98.130916 87.3222193,98.4445484 87.3222193,99.0718132 C87.3222193,99.699078 87.4790074,100.01271 87.7925836,100.01271 L127.740757,100.01271 C127.949283,100.01271 128.053861,99.699078 128.054491,99.0718132 C128.054491,98.4445034 127.949913,98.130871 127.740757,98.130916 L123.919583,98.1308822 Z M446.5294,98.1308822 C440.775232,98.1373647 435.410148,95.2262281 432.279045,90.3985293 C425.575401,80.0603656 413.829484,61.9468034 402.780056,44.9078632 L402.775873,44.9015885 L423.381425,12.9811158 C427.004017,7.36935425 433.227,3.97955356 439.906449,3.97955853 L441.687107,3.97955853 C442.103968,3.97955853 442.31427,3.66612852 442.31427,3.03882996 C442.31427,2.4115314 442.103968,2.09793272 441.687107,2.09793272 L409.635136,2.09793272 C409.218275,2.09793272 409.007972,2.41166634 409.007972,3.03882996 C409.007972,3.66599358 409.218275,3.97955853 409.635136,3.97955853 L412.364045,3.97955853 C414.454753,3.97528593 416.380401,5.11470857 417.383019,6.94933003 C418.385638,8.7839515 418.304674,11.0199854 417.171996,12.7772901 C412.702337,19.700885 406.37821,29.4974028 399.598156,40.0009682 C392.759337,29.4549307 386.41534,19.6728514 382.004279,12.8717138 C380.855729,11.0996882 380.769008,8.84121091 381.778289,6.98632801 C382.787571,5.13144511 384.731002,3.97761752 386.842692,3.97955853 C387.156268,3.97955853 387.313113,3.66598234 387.313225,3.03882996 C387.313337,2.41167758 387.156493,2.09804517 386.842692,2.09793272 L346.250555,2.09793272 C345.936978,2.09793272 345.780134,2.41156514 345.780022,3.03882996 C345.779909,3.66609479 345.936754,3.97967098 346.250555,3.97955853 C352.010821,3.97296149 357.381657,6.88704941 360.516225,11.7197717 C367.083479,21.8464856 378.432978,39.3485709 389.254899,56.0365681 L367.891056,89.1315515 C364.269335,94.7420038 358.047822,98.1310191 351.369945,98.1310172 L349.586757,98.1310172 C349.169897,98.1310172 348.959594,98.4447508 348.959594,99.0719144 C348.959594,99.699078 349.169897,100.012812 349.586757,100.012812 L381.638728,100.012812 C382.055589,100.012812 382.265892,99.699078 382.265892,99.0719144 C382.265892,98.4447508 382.055589,98.1310172 381.638728,98.1310172 L378.901217,98.1310172 C376.811997,98.1342508 374.888233,96.9948629 373.886943,95.1612137 C372.885654,93.3275645 372.967128,91.0931883 374.099305,89.3373337 C378.736051,82.1548243 385.363927,71.8875374 392.432784,60.9372896 C399.54219,71.9010988 406.185078,82.1450749 410.786606,89.241257 C411.93465,91.0148477 412.019548,93.2746287 411.007817,95.1293603 C409.996085,96.984092 408.050121,98.1360648 405.937397,98.1309497 C405.623821,98.1309497 405.466977,98.4445821 405.466864,99.0718469 C405.466752,99.6991118 405.623596,100.012744 405.937397,100.012744 L446.529467,100.012744 C446.843043,100.012744 446.999887,99.6991118 447,99.0718469 C447.000112,98.4445821 446.843268,98.1309609 446.529467,98.1309834 L446.5294,98.1308822 Z M346.065249,98.1392147 C340.30365,98.8554719 335.092804,94.3968787 332.462671,89.2208475 L287.872622,1.47053296 C287.765638,1.15684432 287.295173,1 286.461226,1 C285.730598,1 285.260267,1.15696801 285.053641,1.47053296 C285.053641,1.47053296 249.215007,79.6113217 246.262436,85.7285538 C243.252782,93.1693002 236.057172,98.0643154 228.031072,98.1309497 L226.512332,98.1309497 C226.095471,98.1309497 225.880513,98.4446833 225.871134,99.0718469 C225.861756,99.6990106 226.067572,100.012744 226.484433,100.012744 L258.754432,100.012744 C259.171293,100.012744 259.386251,99.6990106 259.395393,99.0718469 C259.404535,98.4446833 259.199124,98.1309497 258.782263,98.1309497 C251.889603,98.131422 248.918815,92.5340432 252.157255,85.6415517 C255.687365,78.12834 267.144849,53.6708142 267.144849,53.6708142 L294.545635,53.6674407 L294.545973,53.6674407 C294.802188,54.1740699 297.653251,59.7940173 300.882683,66.158964 L312.852262,89.7498766 C313.759861,91.5386563 313.673374,93.670432 312.623852,95.3798102 C311.57433,97.0891885 309.712383,98.1308697 307.706524,98.1308485 L306.044276,98.1308485 C305.627415,98.1308485 305.417112,98.4445821 305.417112,99.0717457 C305.417112,99.6989094 305.627415,100.012643 306.044276,100.012643 L346.212603,100.012643 C346.629464,100.012643 346.839767,99.6989094 346.839767,99.0717457 C346.839767,98.3850739 346.587666,98.0743764 346.065249,98.1393497 L346.065249,98.1392147 Z M269.570516,48.3396029 C273.510741,39.6792394 277.251323,31.456821 280.127349,25.1343127 C282.031543,28.9024896 288.332023,41.3705672 291.853565,48.3396029 L269.570516,48.3396029 Z" id="Shape-Copy-3" stroke="#333333" stroke-width="0.2" fill="#FFFFFF"></path>
    </g>
</svg>